HIERARCHY
ROOT Hips
{
	OFFSET 305.588898 92.559578 -272.186401
	CHANNELS 6 Xposition Yposition Zposition Zrotation Yrotation Xrotation 
	JOINT RightUpLeg
	{
		OFFSET 0.103462 1.857825 10.548491
		CHANNELS 3 Xrotation Yrotation Zrotation
		JOINT RightLeg
		{
			OFFSET 43.500000 -0.000038 -0.000006
			CHANNELS 3 Xrotation Yrotation Zrotation
			JOINT RightFoot
			{
				OFFSET 42.372196 0.000034 -0.000012
				CHANNELS 3 Xrotation Yrotation Zrotation
				JOINT RightToe
				{
					OFFSET 17.299999 -0.000001 -0.000008
					CHANNELS 3 Xrotation Yrotation Zrotation
					End Site
					{
						OFFSET 0.000000 0.000000 0.000000
					}
				}
			}
		}
	}
	JOINT LeftUpLeg
	{
		OFFSET 0.103456 1.857821 -10.548490
		CHANNELS 3 Xrotation Yrotation Zrotation
		JOINT LeftLeg
		{
			OFFSET 43.500038 -0.000011 0.000011
			CHANNELS 3 Xrotation Yrotation Zrotation
			JOINT LeftFoot
			{
				OFFSET 42.372265 0.000004 0.000029
				CHANNELS 3 Xrotation Yrotation Zrotation
				JOINT LeftToe
				{
					OFFSET 17.299988 -0.000007 0.000004
					CHANNELS 3 Xrotation Yrotation Zrotation
					End Site
					{
						OFFSET 0.000000 0.000000 0.000000
					}
				}
			}
		}
	}
	JOINT Spine
	{
		OFFSET 6.901963 -2.603729 -0.000012
		CHANNELS 3 Xrotation Yrotation Zrotation
		JOINT Spine1
		{
			OFFSET 12.588106 0.000010 0.000003
			CHANNELS 3 Xrotation Yrotation Zrotation
			JOINT Spine2
			{
				OFFSET 12.343199 -0.000001 -0.000002
				CHANNELS 3 Xrotation Yrotation Zrotation
				JOINT Neck
				{
					OFFSET 25.832895 -0.000006 0.000023
					CHANNELS 3 Xrotation Yrotation Zrotation
					JOINT Head
					{
						OFFSET 11.766605 0.000011 -0.000027
						CHANNELS 3 Xrotation Yrotation Zrotation
						End Site
						{
							OFFSET 0.000000 0.000000 0.000000
						}
					}
				}
				JOINT RightShoulder
				{
					OFFSET 19.745903 -1.480368 6.000127
					CHANNELS 3 Xrotation Yrotation Zrotation
					JOINT RightArm
					{
						OFFSET 11.284108 0.000010 -0.000010
						CHANNELS 3 Xrotation Yrotation Zrotation
						JOINT RightForeArm
						{
							OFFSET 33.000069 0.000000 0.000030
							CHANNELS 3 Xrotation Yrotation Zrotation
							JOINT RightHand
							{
								OFFSET 25.199997 0.000019 0.000001
								CHANNELS 3 Xrotation Yrotation Zrotation
								End Site
								{
									OFFSET 0.000000 0.000000 0.000000
								}
							}
						}
					}
				}
				JOINT LeftShoulder
				{
					OFFSET 19.746101 -1.480371 -6.000072
					CHANNELS 3 Xrotation Yrotation Zrotation
					JOINT LeftArm
					{
						OFFSET 11.284140 -0.000007 -0.000004
						CHANNELS 3 Xrotation Yrotation Zrotation
						JOINT LeftForeArm
						{
							OFFSET 33.000080 0.000016 -0.000002
							CHANNELS 3 Xrotation Yrotation Zrotation
							JOINT LeftHand
							{
								OFFSET 25.199766 0.000146 0.000422
								CHANNELS 3 Xrotation Yrotation Zrotation
								End Site
								{
									OFFSET 0.000000 0.000000 0.000000
								}
							}
						}
					}
				}
			}
		}
	}
}
MOTION
Frames: 8
Frame Time: 0.033333
-263.720306 87.787956 -445.939606 85.845943 5.262468 91.043942 153.653588 -7.794408 176.660930 -5.731106 -5.993650 -2.203252 69.846197 -0.704877 -7.398975 21.454558 0.003106 0.000018 -167.184453 -10.467904 173.347360 -17.206063 4.732259 2.233009 88.494178 -3.304401 -9.902582 21.454557 -0.003091 -0.000002 10.638311 1.666373 0.594107 11.287627 3.266766 1.348653 10.969064 3.274720 1.328878 7.905887 5.926127 6.698728 -9.446450 -16.684317 12.409834 -167.809907 -72.394527 -13.917699 -13.384038 61.652088 15.177114 -42.313930 -17.901699 1.738411 6.688631 -6.392057 15.243194 164.235956 78.738216 -14.486589 -49.572871 -44.844799 10.418148 -55.698714 17.528535 -2.113336 1.830769 7.804686 -43.709608 
-263.442291 87.038773 -441.959412 86.626675 5.504799 91.404057 152.862844 -4.963292 174.782246 -7.771787 -5.111802 -3.675175 71.179341 0.814828 -6.247377 21.454558 0.003113 0.000017 -164.776114 -9.796198 173.712488 -18.327122 4.562678 2.284537 89.919939 -3.168918 -9.644105 21.454553 -0.003090 0.000003 10.625401 1.416895 0.586438 11.257087 2.769971 1.308436 10.938670 2.777683 1.291665 7.731781 6.237829 6.703978 -9.247052 -16.165516 12.270068 -168.903680 -72.610300 -12.793417 -14.479277 60.996342 14.269537 -40.906737 -17.673816 1.684414 7.102624 -6.244999 15.617098 163.496957 78.742901 -15.237180 -48.801691 -45.092902 11.275215 -55.760602 17.739523 -2.129847 2.092342 7.970281 -42.811694 
-263.233185 86.345299 -437.819885 87.337042 5.643390 91.128896 152.039628 -2.595994 172.049146 -13.727379 -2.619617 -4.212996 69.370072 1.351847 -5.399828 21.454562 0.003111 0.000016 -163.105764 -9.060704 174.806193 -20.766212 4.240426 1.770483 89.712342 -2.818930 -9.475665 21.454551 -0.003083 -0.000001 10.555433 1.078621 0.707809 11.113671 2.084225 1.516241 10.795476 2.093209 1.503606 7.486364 6.148423 6.723122 -9.223263 -15.577901 12.115156 -168.979795 -72.494788 -12.715193 -15.349986 60.071459 13.638599 -39.343621 -17.488121 1.630441 7.489811 -6.135701 15.485729 161.276981 78.895016 -17.484393 -47.587840 -46.357686 11.883727 -54.722270 17.893723 -2.103480 2.721268 8.283333 -40.966276 
-263.038513 85.901878 -433.449097 88.215083 5.803329 89.662120 151.302678 -1.342591 170.522435 -20.633880 -1.087635 -4.078589 69.566740 2.794846 -0.727674 21.454558 0.003111 0.000018 -161.752417 -7.700613 176.021980 -23.770341 3.626468 0.750962 87.188178 -2.257940 -8.982687 21.454550 -0.003083 -0.000003 10.450775 0.578632 1.037433 10.898998 1.056954 2.124837 10.581076 1.069620 2.118416 7.312377 6.041424 6.872565 -9.649952 -15.000726 12.160758 -168.458816 -72.400231 -13.250709 -15.356644 59.352008 13.175909 -38.174358 -17.129223 1.576896 8.396630 -6.158870 14.631939 158.390980 78.833586 -20.415763 -45.300608 -48.274210 10.846466 -52.849716 18.106403 -2.052832 3.157619 8.177280 -38.723153 
-262.875610 85.463921 -429.174011 89.631377 5.857209 87.985110 151.301189 -0.186987 172.298243 -24.533553 -1.490018 -5.633143 64.832162 5.202430 2.610153 21.454557 0.003105 0.000017 -161.821334 -5.696203 178.378805 -28.878921 2.605436 -0.542659 83.732505 -1.698348 -9.258296 21.454557 -0.003082 0.000004 10.319461 -0.103737 1.309904 10.622428 -0.327250 2.604697 10.304675 -0.311663 2.606619 7.166550 6.170060 7.153836 -9.952866 -14.851104 12.471326 -167.434110 -72.099504 -14.304795 -14.476770 58.464077 13.059946 -37.300828 -16.705058 1.527468 9.213261 -6.268913 13.350027 158.199954 78.682727 -20.617023 -43.185712 -50.329878 9.016556 -50.332026 17.995073 -1.960882 4.490481 7.925892 -36.782874 
-262.779297 85.007309 -424.945709 91.272071 5.881648 86.625008 150.495418 0.756899 173.243090 -30.892577 -2.303321 -7.186209 66.215446 6.647129 3.606309 21.454558 0.003105 0.000016 -164.387477 -3.455299 -177.219872 -37.925339 0.427223 -2.242374 77.055879 -0.915650 -8.889810 21.454545 -0.003093 -0.000000 10.165325 -0.823572 1.341800 10.298961 -1.763234 2.605203 9.981049 -1.747598 2.615781 7.272962 5.779006 7.625685 -10.428733 -14.388637 12.840524 -166.180101 -71.560022 -15.596807 -12.940966 57.343331 13.291096 -36.346189 -16.278602 1.476537 10.023743 -5.826877 11.423263 156.743061 78.328719 -22.114062 -41.036361 -52.428501 6.253895 -46.669897 17.492417 -1.811132 5.510036 8.217243 -34.634954 
-262.703705 84.419594 -420.893005 92.914806 6.135647 85.739016 150.039558 1.019301 170.827990 -37.476585 -2.880007 -6.716257 70.688503 6.362145 4.425951 21.454560 0.003108 0.000019 -168.311816 -0.611288 -175.205595 -49.446854 -0.034175 -2.845788 71.036822 0.641020 -4.204551 21.454557 -0.003096 -0.000003 10.071950 -1.502324 1.225148 10.103315 -3.105754 2.315159 9.785006 -3.091855 2.333873 7.701644 5.839782 7.958714 -11.003697 -14.179303 13.194168 -166.232379 -71.453102 -15.543509 -11.970432 56.308742 13.237435 -34.541609 -15.630640 1.392420 10.449409 -5.235709 8.917348 155.531972 78.013437 -23.359527 -38.719523 -54.824320 3.591234 -42.974249 16.813600 -1.657435 6.661326 7.296455 -34.481124 
-262.650909 84.443779 -416.759308 94.125874 6.429028 85.535893 151.361254 1.428213 167.891514 -41.233336 -2.438709 -5.527511 75.063902 5.238750 4.325184 21.454558 0.003106 0.000017 -173.151210 2.100915 -173.671575 -61.604229 -0.319403 -2.829022 65.558874 3.033143 2.340543 21.454555 -0.003101 -0.000004 9.975624 -1.969231 0.965240 9.913569 -4.013758 1.759143 9.594796 -4.003209 1.783363 8.281713 5.826205 8.155610 -10.942638 -14.202227 13.371529 -167.896609 -71.430139 -13.830599 -11.794599 55.115221 13.560821 -31.499244 -14.661865 1.264164 10.297832 -4.248717 6.219599 156.525068 77.844042 -22.360588 -36.103058 -57.366370 0.490805 -39.725815 16.352135 -1.538785 8.059756 5.826692 -36.318431 
